<svg width="310" height="101" viewBox="0 0 310 101" fill="none" xmlns="http://www.w3.org/2000/svg">
<path d="M86.9766 53.3477C83.9802 53.3477 81.5745 54.2307 79.7574 55.9987C77.9403 57.7667 77.0328 60.0764 77.0328 62.9236V82.8848H70.4043V63.1443C70.4043 60.6896 70.809 58.4555 71.6204 56.4422C72.4319 54.429 73.5602 52.71 75.0093 51.2854C76.4564 49.8607 78.1999 48.757 80.2398 47.9701C82.2776 47.1852 84.5239 46.7907 86.9807 46.7907H88.8857V53.3457H86.9807L86.9766 53.3477Z" fill="#696867"/>
<path d="M91.414 65.2067C91.414 62.5557 91.88 60.1009 92.8141 57.8403C93.7462 55.5817 95.0236 53.642 96.6445 52.0212C98.2653 50.4003 100.191 49.1249 102.427 48.1908C104.661 47.2588 107.103 46.7907 109.756 46.7907C112.409 46.7907 114.85 47.2588 117.086 48.1908C119.32 49.1249 121.247 50.4003 122.868 52.0212C124.489 53.642 125.765 55.5817 126.699 57.8403C127.631 60.0989 128.099 62.5536 128.099 65.2067C128.099 65.6012 128.025 66.2144 127.878 67.0483H98.1938C98.5862 70.0938 99.8249 72.524 101.914 74.3411C104.001 76.1581 106.615 77.0657 109.758 77.0657C112.017 77.0657 114.03 76.5751 115.798 75.592C117.566 74.6109 118.94 73.2353 119.923 71.4673H127.069C126.48 73.2844 125.632 74.942 124.528 76.4402C123.422 77.9384 122.122 79.2282 120.624 80.3074C119.126 81.3886 117.458 82.2103 115.616 82.7744C113.775 83.3385 111.823 83.6226 109.76 83.6226C107.109 83.6226 104.665 83.1546 102.431 82.2225C100.195 81.2905 98.2572 80.013 96.6118 78.3922C94.9664 76.7713 93.6889 74.8316 92.7814 72.5731C91.8719 70.3145 91.4181 67.8597 91.4181 65.2067H91.414ZM121.098 61.965C120.461 59.314 119.134 57.2149 117.121 55.6676C115.107 54.1203 112.653 53.3477 109.754 53.3477C106.856 53.3477 104.401 54.1203 102.388 55.6676C100.375 57.2149 99.0482 59.314 98.4105 61.965H121.098Z" fill="#696867"/>
<path d="M142.09 33.5337V82.8848H135.461V33.5337H142.09Z" fill="#696867"/>
<path d="M178.697 48.3114L166.911 73.0984L155.126 48.3114H147.907L163.269 81.4704C162.421 83.3426 161.389 85.5092 160.851 86.292C160.04 87.4714 159.144 88.428 158.161 89.1658C157.178 89.9017 156.05 90.429 154.772 90.7499C153.495 91.0687 152.021 91.2282 150.353 91.2282V97.7831C152.759 97.7831 154.907 97.5358 156.798 97.0473C158.688 96.5567 160.381 95.7698 161.881 94.6906C163.379 93.6094 164.741 92.197 165.969 90.4556C167.195 88.7121 169.511 83.731 170.592 81.2762L185.914 48.3135H178.695L178.697 48.3114Z" fill="#696867"/>
<path d="M187.61 65.2067C187.61 62.5557 188.076 60.1009 189.01 57.8403C189.942 55.5817 191.22 53.642 192.841 52.0212C194.462 50.4003 196.387 49.1249 198.623 48.1908C200.857 47.2588 203.3 46.7907 205.953 46.7907C208.606 46.7907 211.046 47.2588 213.282 48.1908C215.516 49.1249 217.444 50.4003 219.065 52.0212C220.685 53.642 221.961 55.5817 222.895 57.8403C223.827 60.0989 224.295 62.5536 224.295 65.2067C224.295 65.6012 224.221 66.2144 224.074 67.0483H194.39C194.783 70.0938 196.021 72.524 198.11 74.3411C200.197 76.1581 202.811 77.0657 205.955 77.0657C208.213 77.0657 210.227 76.5751 211.995 75.592C213.763 74.6109 215.136 73.2353 216.119 71.4673H223.265C222.676 73.2844 221.828 74.942 220.724 76.4402C219.619 77.9384 218.319 79.2282 216.82 80.3074C215.322 81.3886 213.654 82.2103 211.813 82.7744C209.971 83.3385 208.019 83.6226 205.957 83.6226C203.306 83.6226 200.861 83.1546 198.627 82.2225C196.391 81.2905 194.453 80.013 192.808 78.3922C191.163 76.7713 189.885 74.8316 188.978 72.5731C188.068 70.3145 187.614 67.8597 187.614 65.2067H187.61ZM217.295 61.965C216.657 59.314 215.33 57.2149 213.317 55.6676C211.304 54.1203 208.849 53.3477 205.951 53.3477C203.052 53.3477 200.598 54.1203 198.584 55.6676C196.571 57.2149 195.244 59.314 194.607 61.965H217.295Z" fill="#696867"/>
<path d="M248.23 53.3477C246.756 53.3477 245.405 53.595 244.179 54.0835C242.95 54.5741 241.906 55.2506 241.047 56.1091C240.189 56.9696 239.512 57.9997 239.022 59.2036C238.531 60.4075 238.286 61.7197 238.286 63.1443V82.8848H231.657V63.1443C231.657 60.7877 232.074 58.6027 232.908 56.5894C233.742 54.5761 234.897 52.8449 236.371 51.3957C237.844 49.9486 239.586 48.8183 241.601 48.0069C243.614 47.1954 245.824 46.7907 248.23 46.7907C250.635 46.7907 252.845 47.1954 254.858 48.0069C256.872 48.8163 258.615 49.9466 260.089 51.3957C261.562 52.8449 262.703 54.5761 263.514 56.5894C264.324 58.6027 264.73 60.7877 264.73 63.1443V82.8848H258.102V63.1443C258.102 61.7197 257.869 60.4075 257.403 59.2036C256.935 57.9997 256.26 56.9696 255.377 56.1091C254.494 55.2506 253.45 54.5741 252.246 54.0835C251.042 53.593 249.705 53.3477 248.232 53.3477H248.23Z" fill="#696867"/>
<path d="M285.82 83.2323C282.903 83.2323 280.13 82.8337 277.499 82.0386C274.868 81.2435 272.802 80.2706 271.3 79.1219L273.951 74.0835C275.453 75.1014 277.309 75.9619 279.52 76.6691C281.73 77.3763 283.984 77.7299 286.282 77.7299C289.241 77.7299 291.375 77.3109 292.679 76.4709C293.983 75.6329 294.635 74.4596 294.635 72.9573C294.635 71.8536 294.237 70.9911 293.442 70.3717C292.647 69.7545 291.596 69.2884 290.292 68.9798C288.988 68.6712 287.541 68.3952 285.949 68.152C284.359 67.9088 282.766 67.6001 281.176 67.2241C279.584 66.848 278.127 66.3186 276.8 65.6318C275.476 64.9471 274.413 63.9967 273.618 62.7805C272.822 61.5644 272.424 59.9415 272.424 57.9078C272.424 55.874 273.021 53.9302 274.214 52.338C275.408 50.7458 277.098 49.5194 279.285 48.6589C281.472 47.7964 284.07 47.3651 287.075 47.3651C289.372 47.3651 291.704 47.641 294.069 48.1929C296.432 48.7468 298.368 49.5296 299.87 50.5455L297.152 55.5838C295.561 54.523 293.904 53.7933 292.179 53.3968C290.456 52.9982 288.73 52.7999 287.007 52.7999C284.224 52.7999 282.145 53.2537 280.775 54.1592C279.406 55.0667 278.721 56.2256 278.721 57.64C278.721 58.8337 279.13 59.7514 279.948 60.3911C280.765 61.0329 281.826 61.5296 283.13 61.8832C284.434 62.2368 285.881 62.5352 287.473 62.7785C289.066 63.0217 290.656 63.3324 292.248 63.7064C293.838 64.0825 295.287 64.6017 296.592 65.2639C297.896 65.9262 298.954 66.8541 299.774 68.0478C300.592 69.2414 301 70.8316 301 72.8204C301 74.942 300.381 76.7775 299.144 78.3227C297.906 79.87 296.16 81.0738 293.908 81.9364C291.653 82.7989 288.957 83.2282 285.82 83.2282V83.2323Z" fill="#696867"/>
<path d="M66.01 27.8642L65.9998 27.8111C65.1597 23.4575 63.2405 19.0916 60.8797 16.1524C58.6947 11.9971 54.7581 8.4549 51.8046 6.52337L51.7678 6.49884C48.0642 4.02158 43.5859 2.31692 39.8148 1.93879C36.1929 0.845283 31.4367 0.698118 27.0912 1.54431L27.1158 1.66695L27.0544 1.55249L26.9911 1.56475C21.6809 2.55607 14.7335 5.68126 12.0294 10.1922C11.3753 11.1509 10.9706 12.1626 10.8276 13.1948C10.7601 13.6649 10.7928 14.1514 10.9195 14.5908C11.0176 15.063 11.2711 15.4881 11.6267 15.7845C12.1173 16.2566 12.7182 16.5121 13.4786 16.8371L13.5113 16.8514C14.9461 17.4667 16.3094 17.8693 17.6298 18.2577C21.3498 19.3532 24.8654 20.3875 28.9103 26.1882C29.9671 27.7845 30.9727 29.6813 31.8966 31.8295C31.5143 32.0461 31.1853 32.3486 30.94 32.7145C30.6886 33.0865 30.5292 33.5178 30.476 33.9654C28.1316 33.9163 25.9916 33.6976 24.1193 33.3154C17.2128 31.7395 14.9359 28.8698 12.524 25.8305C11.6697 24.7533 10.7846 23.6394 9.67681 22.5418L9.65024 22.5152C9.06567 21.9327 8.6017 21.4728 7.98851 21.1989C7.57155 20.9761 7.081 20.9025 6.61703 20.9863C6.15101 21.0333 5.68907 21.1846 5.28233 21.4237C4.37686 21.9449 3.59607 22.693 2.96449 23.6414C-0.219975 27.8622 -0.51226 35.48 0.562856 40.7697L0.573075 40.8208C1.41314 45.1764 3.3324 49.5443 5.69521 52.4835C7.88018 56.6368 11.8148 60.179 14.7703 62.1105L14.8071 62.1351C18.523 64.6205 23.0074 66.3292 26.7765 66.7012C28.8368 67.3205 31.2629 67.6353 33.7709 67.6353C35.6697 67.6353 37.6155 67.4555 39.4837 67.0916L39.4592 66.969L39.5205 67.0855L39.7801 67.0364C45.0228 66.0165 51.8802 62.8893 54.5435 58.4457C55.1975 57.4871 55.6022 56.4774 55.7453 55.4432C55.8128 54.9731 55.7801 54.4866 55.6533 54.0472C55.5552 53.575 55.3018 53.1499 54.9461 52.8535C54.4556 52.3813 53.8547 52.1238 53.0943 51.8009L53.0616 51.7866C51.6268 51.1713 50.2635 50.7687 48.9431 50.3803C45.2231 49.2848 41.7075 48.2505 37.6625 42.4498C36.6017 40.8494 35.5941 38.9444 34.6661 36.786C35.0606 36.5694 35.3978 36.2607 35.6492 35.8887C35.8945 35.5249 36.0519 35.1059 36.1091 34.6726C38.4495 34.7237 40.5854 34.9424 42.4535 35.3226C49.358 36.8985 51.637 39.7682 54.0488 42.8055C54.9032 43.8806 55.7862 44.9945 56.8961 46.0942L56.9247 46.1228C57.5093 46.7033 57.9712 47.1632 58.5823 47.437C58.9993 47.6598 59.4898 47.7355 59.9538 47.6496C60.0499 47.6394 60.1459 47.6251 60.24 47.6067C60.6058 47.5352 60.9697 47.3982 61.2885 47.2122C62.194 46.691 62.9768 45.9429 63.6063 44.9945C66.7908 40.7738 67.0831 33.156 66.008 27.8663L66.01 27.8642ZM27.7617 65.9204L27.6615 65.8939C27.4264 65.8305 27.1934 65.7651 26.9686 65.6956C25.5787 65.2643 24.3667 64.6982 23.453 64.0502C22.5557 63.4902 21.8608 62.7993 21.3886 62.0002C21.2169 61.7161 21.1045 61.3808 21.0657 61.0395L21.0596 61.0109C21.0064 60.7534 21.0432 60.4876 21.1638 60.2587L21.1801 60.226C21.3764 59.7661 21.7565 59.3757 22.2818 58.832L22.3104 58.8034C23.3569 57.7222 24.4341 56.8453 25.4786 55.9971C28.6283 53.434 31.6022 51.0139 33.172 43.7355C33.5358 41.8366 33.7341 39.6905 33.7647 37.3563L33.8117 37.3461C34.7417 39.4881 35.7555 41.391 36.8266 43.0078C41.08 49.109 44.7591 50.1923 48.661 51.341C49.9507 51.7212 51.2834 52.1136 52.661 52.7043L52.6978 52.7206C53.3907 53.017 53.8935 53.2316 54.2553 53.5832L54.2839 53.6077C54.4801 53.7671 54.615 53.9981 54.6682 54.2618L54.6784 54.3006C54.7704 54.6133 54.7949 54.9669 54.7479 55.2981C54.6252 56.179 54.2737 57.0518 53.6952 57.9C51.9088 60.8801 46.9502 64.5265 39.8823 65.9859L39.265 66.1064C36.2011 66.7033 33.0718 66.8075 30.2164 66.4049C29.6605 66.3272 29.1045 66.227 28.5649 66.1085L28.475 66.0881C28.2318 66.0349 27.9926 65.9756 27.7596 65.9143L27.7617 65.9204ZM26.0223 40.1136C24.1173 41.3277 22.3554 42.1739 20.6548 42.6951C21.8076 41.34 23.2793 40.0604 25.1413 38.7932C26.7744 37.7385 28.7141 36.7431 30.9093 35.8356C30.9441 35.8908 30.9788 35.9419 31.0136 35.9889C29.311 37.6465 27.6329 39.0323 26.0223 40.1115V40.1136ZM24.5854 37.9572C21.7545 39.8826 19.8025 41.806 18.4453 44.0114C17.2742 45.9163 16.71 47.7457 16.1152 49.6833C15.7187 50.969 15.3099 52.2996 14.7008 53.6731L14.6845 53.7079C14.3799 54.3987 14.1592 54.8974 13.8035 55.2551L13.779 55.2838C13.6257 55.4677 13.3927 55.6006 13.1086 55.6619L13.08 55.6701C12.7693 55.76 12.4157 55.7784 12.0825 55.7273C11.1668 55.5883 10.2614 55.2 9.38657 54.5663C8.42796 53.9531 7.42234 53.0088 6.47804 51.8315C6.17145 51.4493 5.8669 51.0385 5.57257 50.6072L5.55213 50.5765C5.24962 50.133 4.95734 49.6649 4.68141 49.1867C3.22203 46.6562 2.13669 43.6782 1.54599 40.5714L1.45606 40.1115C0.145892 33.0006 1.67272 27.0119 3.78003 24.2178C4.33803 23.3818 5.01048 22.7319 5.7831 22.2883C6.07129 22.1207 6.40854 22.0103 6.73762 21.9797L6.7785 21.9736C7.03603 21.9245 7.30175 21.9633 7.52863 22.088L7.56133 22.1044C8.01917 22.3067 8.40548 22.691 8.94304 23.2245L8.96961 23.251C10.0365 24.3077 10.9011 25.3972 11.7392 26.4518C14.2634 29.6322 16.6487 32.6348 23.9088 34.2924C25.8035 34.6787 27.9476 34.9036 30.2798 34.9608L30.288 35.0078C28.1377 35.9112 26.2205 36.9025 24.5874 37.9572H24.5854ZM11.9313 56.7186C12.3135 56.7779 12.7141 56.7717 13.0943 56.6982C13.1761 56.6818 13.2558 56.6634 13.3355 56.6409C13.8056 56.549 14.2328 56.3016 14.5332 55.9501C15.0115 55.4657 15.2731 54.8688 15.6063 54.1146L15.6227 54.0799C16.2542 52.6552 16.6712 51.2981 17.0779 49.9797C17.7054 47.9378 18.3002 46.0063 19.6615 44.0012C21.8465 43.5208 24.1071 42.5234 26.5741 40.9516C28.1807 39.8744 29.8465 38.5091 31.5286 36.8903L31.5675 36.9168C30.6968 39.0834 30.055 41.1437 29.6584 43.0446C29.1291 45.9102 29.0534 48.3732 29.4254 50.5765C28.0764 52.5939 26.5087 53.8693 24.8511 55.2204C23.7841 56.087 22.6824 56.9843 21.5971 58.1064L21.5685 58.1371C20.9941 58.7278 20.5404 59.1959 20.2747 59.8111C20.058 60.2301 19.9885 60.7227 20.0785 61.1846C20.1316 61.6506 20.289 62.1105 20.5322 62.5152C21.0861 63.4514 21.8853 64.2505 22.8991 64.8842C20.3176 64.1177 17.7136 62.8791 15.3242 61.2746L14.9011 60.9925C12.6978 59.4861 10.5353 57.4892 8.85719 55.4207C9.83624 56.1238 10.8705 56.5612 11.9333 56.7206L11.9313 56.7186ZM32.7673 37.0865C32.7489 39.4616 32.5547 41.6322 32.1929 43.5331C31.7187 45.7365 31.0851 47.5822 30.2614 49.158C30.1081 47.39 30.2328 45.4462 30.6395 43.2367C31.0381 41.3318 31.6942 39.251 32.5915 37.0477C32.6467 37.062 32.706 37.0742 32.7673 37.0845V37.0865ZM33.8036 31.5065C33.824 29.1437 34.0161 26.9874 34.3779 25.0967C34.8541 22.8933 35.4857 21.0477 36.3094 19.4718C36.4627 21.2418 36.338 23.1836 35.9313 25.3931C35.5368 27.2858 34.8828 29.3563 33.9916 31.5474C33.9323 31.5331 33.869 31.5188 33.8036 31.5086V31.5065ZM32.4648 3.39817C32.0826 3.68024 31.7596 4.04406 31.5368 4.44467C31.2691 4.84529 31.1444 5.32561 31.1832 5.78755C31.1914 6.46614 31.4305 7.07319 31.7351 7.84171L31.7494 7.87646C32.3197 9.32971 32.9921 10.5826 33.6441 11.7947C34.6559 13.6792 35.6145 15.4595 36.0826 17.8427C34.8909 19.7354 34.012 22.041 33.3968 24.8984C33.033 26.7973 32.8347 28.9434 32.8041 31.2776L32.7571 31.2878C31.8271 29.1478 30.8133 27.2429 29.7422 25.6261C25.4888 19.5249 21.8097 18.4416 17.9119 17.2929C16.6221 16.9127 15.2874 16.5203 13.9078 15.9276L13.8751 15.9133C13.1801 15.6169 12.6773 15.4023 12.3135 15.0487L12.2849 15.0241C12.0887 14.8647 11.9538 14.6337 11.9006 14.3701L11.8904 14.3312C11.7984 14.0185 11.7739 13.6649 11.8209 13.3338C11.9435 12.4549 12.2951 11.5801 12.8735 10.7319C14.662 7.74973 19.6206 4.10333 26.6865 2.646L27.3018 2.52541C30.0815 1.98376 32.9124 1.84886 35.547 2.12888C34.3636 2.32919 33.3273 2.75842 32.4648 3.40226V3.39817ZM35.0074 31.715C35.8782 29.5484 36.52 27.4881 36.9165 25.5873C37.45 22.6992 37.5235 20.2199 37.1413 18.0063C37.082 17.6567 37.0085 17.3093 36.9267 16.972C36.3953 14.7973 35.4878 13.1069 34.5271 11.3205C33.8894 10.135 33.2313 8.9107 32.6835 7.51059L32.6692 7.4738C32.3912 6.77069 32.1909 6.26378 32.1868 5.75893V5.72214C32.1623 5.47073 32.2297 5.21115 32.381 4.98836L32.4014 4.95361C32.5588 4.66746 32.7938 4.40175 33.0636 4.20349C33.8015 3.65162 34.7152 3.28167 35.7841 3.1018C36.8531 2.86061 38.1796 2.80543 39.6165 2.94033C39.8577 2.96281 40.103 2.99143 40.3544 3.02617L40.4259 3.03639C40.6773 3.07114 40.9308 3.11202 41.2129 3.16107C41.7627 3.25918 42.3248 3.38387 42.8828 3.52899C45.7218 4.26685 48.616 5.59133 51.2507 7.36138L51.6779 7.64549C54.1204 9.3154 56.5118 11.5862 58.2451 13.8836C58.5925 14.3456 58.9216 14.8177 59.2323 15.3021L59.2527 15.3328C59.3979 15.5617 59.5389 15.7927 59.6697 16.0216L59.7024 16.0768C59.8455 16.3282 59.9702 16.5571 60.0826 16.7778C60.7305 18.0471 61.1454 19.2796 61.3151 20.4447C61.5174 21.4278 61.5072 22.364 61.2803 23.2265C61.1986 23.5494 61.0391 23.8642 60.8307 24.1217L60.8082 24.1544C60.661 24.3732 60.4484 24.5346 60.2011 24.6082L60.1664 24.6205C59.7024 24.8044 59.1546 24.8085 58.4004 24.8146H58.3616C56.8634 24.831 55.4817 24.6797 54.1388 24.5346C52.1234 24.3159 50.2205 24.1074 48.0069 24.4304C45.4418 24.8044 42.9012 25.8366 40.0069 27.6803C38.4004 28.7574 36.7346 30.1228 35.0524 31.7416L35.0136 31.715H35.0074ZM40.5486 28.5183C42.4535 27.3062 44.2134 26.458 45.916 25.9368C44.7652 27.2919 43.2916 28.5714 41.4295 29.8387C39.8046 30.8872 37.8751 31.8785 35.6901 32.784C35.6533 32.7247 35.6165 32.6716 35.5797 32.6205C37.2742 30.9731 38.9461 29.5934 40.5465 28.5203L40.5486 28.5183ZM41.9855 30.6746C44.3973 29.0354 46.2062 27.3553 47.5103 25.5402C49.8915 25.0824 51.8986 25.3011 54.0223 25.5321C55.3897 25.6813 56.802 25.8346 58.3636 25.8182H58.4065C59.2303 25.81 59.8823 25.8039 60.5057 25.5607C60.9553 25.4217 61.3539 25.1253 61.6196 24.7349C61.9119 24.3691 62.1286 23.9337 62.2471 23.4779C62.5128 22.4661 62.5292 21.3849 62.2982 20.271C62.2921 20.2321 62.2859 20.1933 62.2798 20.1544C63.543 22.5254 64.4873 25.2418 65.0248 28.0604L65.1332 28.6225C66.0489 33.7324 65.6809 40.5796 62.7949 44.4079L62.7908 44.414C62.2328 45.25 61.5603 45.9 60.7877 46.3435C60.4995 46.5111 60.1643 46.6215 59.8353 46.6542L59.7944 46.6603C59.5368 46.7094 59.2711 46.6706 59.0443 46.5459L59.0115 46.5295C58.5537 46.3292 58.1694 45.945 57.6319 45.4115L57.6033 45.3829C56.5343 44.3241 55.6697 43.2347 54.8337 42.1821C52.3094 39.0017 49.9242 35.9991 42.6641 34.3415C40.7714 33.9552 38.6273 33.7303 36.2931 33.6731L36.2849 33.6261C38.4372 32.7227 40.3544 31.7314 41.9855 30.6767V30.6746Z" fill="url(#paint0_linear_16143_13409)"/>
<defs>
<linearGradient id="paint0_linear_16143_13409" x1="5.41519" y1="15.2735" x2="58.895" y2="51.8131" gradientUnits="userSpaceOnUse">
<stop offset="0.1" stop-color="#008F93"/>
<stop offset="0.3" stop-color="#63B773"/>
<stop offset="0.5" stop-color="#07B2E7"/>
<stop offset="0.7" stop-color="#C11172"/>
<stop offset="0.9" stop-color="#F18864"/>
</linearGradient>
</defs>
</svg>
